<svg xmlns="http://www.w3.org/2000/svg" xmlns:xlink="http://www.w3.org/1999/xlink" width="78px" height="78px">
    <path fill-rule="evenodd" opacity="0.702" fill="rgb(183, 183, 183)"
        d="M77.099,7.787 L77.099,22.744 L62.141,22.744 L77.099,7.787 ZM38.946,9.145 C25.050,9.145 13.377,18.712 10.081,31.595 L19.047,31.595 L36.168,48.716 L62.141,22.744 L62.047,37.782 L36.168,63.661 L9.234,36.727 C9.178,37.470 9.121,38.213 9.121,38.971 C9.121,55.416 22.501,68.796 38.946,68.796 C55.392,68.796 68.771,55.416 68.771,38.971 C68.771,36.294 68.384,33.713 67.720,31.243 L76.676,31.243 C77.187,33.740 77.456,36.325 77.456,38.971 C77.456,60.205 60.180,77.480 38.946,77.480 C17.711,77.480 0.437,60.205 0.437,38.971 C0.437,17.736 17.711,0.461 38.946,0.461 C48.673,0.461 57.562,4.093 64.347,10.062 L58.189,16.221 C52.990,11.816 46.278,9.145 38.946,9.145 Z" />
</svg>